<svg t="1629289254396" class="icon" viewBox="0 0 1024 1024" version="1.1" xmlns="http://www.w3.org/2000/svg" p-id="951" width="200" height="200">
    <path d="M495.2 128.128a32 32 0 0 1 2.656 42.24l-2.656 3.04L167.104 501.504a240 240 0 0 0 333.216 345.376l6.176-5.984 328.096-328.096a32 32 0 0 1 47.936 42.24l-2.656 3.008-328.096 328.096A304 304 0 0 1 115.264 463.04l6.592-6.816L449.92 128.128a32 32 0 0 1 45.248 0zM336 480a176 176 0 1 1 0 352 176 176 0 0 1 0-352z m255.2 81.92l135.776-135.744a32 32 0 0 1 47.904 42.24l-2.656 3.008-135.776 135.776a32 32 0 0 1-47.904-42.24l2.656-3.008 135.776-135.776-135.776 135.776z m0-316.768a32 32 0 0 1 2.656 42.24l-2.656 3.008-135.776 135.776a32 32 0 0 1-47.904-42.24l2.656-3.008 135.776-135.776a32 32 0 0 1 45.248 0z m299.648-118.624a32 32 0 0 1 2.656 42.24l-2.656 3.008-248.896 248.896a32 32 0 0 1-47.936-42.24l2.656-3.008 248.928-248.896a32 32 0 0 1 45.248 0z m-11.648 182.624a32 32 0 0 1 2.656 42.24l-2.656 3.008-22.4 22.4a32 32 0 0 1-47.904-42.24l2.656-3.008 22.4-22.4a32 32 0 0 1 45.248 0z m-192-160a32 32 0 0 1 2.656 42.24l-2.656 3.008-22.4 22.4a32 32 0 0 1-47.904-42.24l2.656-3.008 22.4-22.4a32 32 0 0 1 45.248 0z" fill="#404853" p-id="952"></path>
</svg>