<svg t="1626758084845" class="icon" viewBox="0 0 1300 1024" version="1.1" xmlns="http://www.w3.org/2000/svg" p-id="122411" width="128" height="128"><path d="M415.034895 81.707463H82.028092v81.619315h408.096572z m758.243431 156.709084H82.028092v703.558491h387.691744v81.619314H82.028092a74.273576 74.273576 0 0 1-81.619314-81.619314V39.26542A36.728692 36.728692 0 0 1 39.586048 0.088149h408.096573l23.669601 23.669601 131.407096 133.039483h571.335201a74.273576 74.273576 0 0 1 81.619315 81.619314v152.628118h-81.619315z" fill="#515151" p-id="122412"></path><path d="M1105.534295 1016.248614H740.69596a186.90823 186.90823 0 0 1-32.647726-370.551688 222.004535 222.004535 0 0 1 430.133787 0 186.90823 186.90823 0 0 1-32.647726 370.551688zM742.328346 724.051468a105.288916 105.288916 0 1 0 0 210.577831h364.838335a105.288916 105.288916 0 1 0 0-210.577831h-38.361077v-36.728692a140.385221 140.385221 0 0 0-279.954249 0v36.728692z" fill="#515151" p-id="122413"></path></svg>